<?xml version="1.0" encoding="UTF-8"?>
<svg width="228px" height="83px" viewBox="0 0 228 83" version="1.1" xmlns="http://www.w3.org/2000/svg" xmlns:xlink="http://www.w3.org/1999/xlink">
    <!-- Generator: Sketch 52.6 (67491) - http://www.bohemiancoding.com/sketch -->
    <title>Wordtype Logo_White</title>
    <desc>Created with Sketch.</desc>
    <g id="Wordtype-Logo_White" stroke="none" stroke-width="1" fill="none" fill-rule="evenodd">
        <g transform="translate(24.000000, 25.000000)" fill="#FFFFFF" id="Group-17">
            <g>
                <path d="M12.8068429,17.1319379 C14.2085789,17.1319379 15.3713584,16.6432397 16.2958925,15.6651276 C17.2197155,14.6884466 17.6819826,13.4777914 17.6819826,12.0353086 C17.6819826,10.5613431 17.2197155,9.34210172 16.2958925,8.38116207 C15.3713584,7.4195069 14.2085789,6.93867931 12.8068429,6.93867931 L6.92893913,6.93867931 L6.92893913,17.1319379 L12.8068429,17.1319379 Z M12.8068429,0.735860345 C16.0249329,0.735860345 18.7331068,1.8255931 20.9320758,4.00505862 C23.1303335,6.18595517 24.2291068,8.86127414 24.2291068,12.0353086 C24.2291068,15.2086276 23.1303335,17.8853776 20.9320758,20.0655586 C18.7331068,22.2450241 16.0249329,23.3347569 12.8068429,23.3347569 L6.92893913,23.3347569 L6.92893913,33.7376621 L0.333454658,33.7376621 L0.333454658,0.735860345 L12.8068429,0.735860345 Z" id="Fill-1"></path>
                <path d="M34.504095,13.6025776 C35.0773062,12.0635 36.0253093,10.9093707 37.3473932,10.1401897 C38.6687658,9.37100862 40.1430422,8.98606034 41.7680888,8.98606034 L41.7680888,16.1390862 C39.8877286,15.9151293 38.2079211,16.3000776 36.7265329,17.2932155 C35.2451447,18.287069 34.504095,19.9377672 34.504095,22.2453103 L34.504095,33.7379483 L28.3388745,33.7379483 L28.3388745,8.98677586 L34.504095,8.98677586 L34.504095,13.6025776 Z" id="Fill-3"></path>
                <path d="M51.6123863,26.0025629 C52.8057466,27.2218043 54.3013584,27.831425 56.0999329,27.831425 C57.8977963,27.831425 59.4019422,27.2218043 60.6109484,26.0025629 C61.8199547,24.7840371 62.4251689,23.2370888 62.4251689,21.3624336 C62.4251689,19.4870629 61.8199547,17.9393991 60.6109484,16.7208733 C59.4019422,15.5023474 57.8977963,14.8934422 56.0999329,14.8934422 C54.3013584,14.8934422 52.8057466,15.5023474 51.6123863,16.7208733 C50.4183149,17.9393991 49.8216348,19.4870629 49.8216348,21.3624336 C49.8216348,23.2370888 50.4183149,24.7840371 51.6123863,26.0025629 M64.8431814,30.1511319 C62.4550385,32.5423905 59.5413335,33.7380198 56.0999329,33.7380198 C52.6585323,33.7380198 49.7519391,32.5423905 47.3801534,30.1511319 C45.0083677,27.7605888 43.8228304,24.8305457 43.8228304,21.3624336 C43.8228304,17.8928905 45.0083677,14.9628474 47.3801534,12.5723043 C49.7519391,10.1824767 52.6585323,8.98684741 56.0999329,8.98684741 C59.5413335,8.98684741 62.4550385,10.1824767 64.8431814,12.5723043 C67.2299019,14.9628474 68.4239733,17.8928905 68.4239733,21.3624336 C68.4239733,24.8305457 67.2299019,27.7605888 64.8431814,30.1511319" id="Fill-5"></path>
                <path d="M86.2560326,14.9491095 L80.8560419,14.9491095 L80.8560419,25.4629198 C80.8560419,26.2964974 81.0622842,26.9054026 81.4769022,27.2896353 C81.890809,27.6745836 82.4960233,27.8913853 83.292545,27.939325 C84.0890668,27.9872647 85.076896,27.9801095 86.2560326,27.9149974 L86.2560326,33.540394 C82.0181102,34.0212216 79.0311537,33.6205319 77.295163,32.3390405 C75.5584612,31.0575491 74.6908214,28.7650319 74.6908214,25.4629198 L74.6908214,14.9491095 L70.5332624,14.9491095 L70.5332624,8.98670431 L74.6908214,8.98670431 L74.6908214,4.8610319 L80.8560419,2.96491121 L80.8560419,8.98670431 L86.2560326,8.98670431 L86.2560326,14.9491095 Z" id="Fill-7"></path>
                <path d="M96.1003301,26.0025629 C97.2936904,27.2218043 98.7893022,27.831425 100.587877,27.831425 C102.38574,27.831425 103.889886,27.2218043 105.098892,26.0025629 C106.307898,24.7840371 106.912402,23.2370888 106.912402,21.3624336 C106.912402,19.4870629 106.307898,17.9393991 105.098892,16.7208733 C103.889886,15.5023474 102.38574,14.8934422 100.587877,14.8934422 C98.7893022,14.8934422 97.2936904,15.5023474 96.1003301,16.7208733 C94.9062587,17.9393991 94.3095786,19.4870629 94.3095786,21.3624336 C94.3095786,23.2370888 94.9062587,24.7840371 96.1003301,26.0025629 M109.331125,30.1511319 C106.942982,32.5423905 104.029277,33.7380198 100.587877,33.7380198 C97.1464761,33.7380198 94.2398829,32.5423905 91.8680972,30.1511319 C89.4963115,27.7605888 88.3107742,24.8305457 88.3107742,21.3624336 C88.3107742,17.8928905 89.4963115,14.9628474 91.8680972,12.5723043 C94.2398829,10.1824767 97.1464761,8.98684741 100.587877,8.98684741 C104.029277,8.98684741 106.942982,10.1824767 109.331125,12.5723043 C111.717846,14.9628474 112.911917,17.8928905 112.911917,21.3624336 C112.911917,24.8305457 111.717846,27.7605888 109.331125,30.1511319" id="Fill-9"></path>
                <path d="M129.494575,17.1319379 C130.896311,17.1319379 132.059091,16.6432397 132.983625,15.6651276 C133.907448,14.6884466 134.369715,13.4777914 134.369715,12.0353086 C134.369715,10.5613431 133.907448,9.34210172 132.983625,8.38116207 C132.059091,7.4195069 130.896311,6.93867931 129.494575,6.93867931 L123.616671,6.93867931 L123.616671,17.1319379 L129.494575,17.1319379 Z M129.494575,0.735860345 C132.712665,0.735860345 135.420839,1.8255931 137.619097,4.00505862 C139.817355,6.18595517 140.916839,8.86127414 140.916839,12.0353086 C140.916839,15.2086276 139.817355,17.8853776 137.619097,20.0655586 C135.420839,22.2450241 132.712665,23.3347569 129.494575,23.3347569 L123.616671,23.3347569 L123.616671,33.7376621 L117.021187,33.7376621 L117.021187,0.735860345 L129.494575,0.735860345 Z" id="Fill-11"></path>
                <path d="M145.029025,33.7372328 L151.194245,33.7372328 L151.194245,13.1110172 L145.029025,13.1110172 L145.029025,33.7372328 Z M148.053674,8.98606034 C146.953478,8.98606034 145.999075,8.57964655 145.191885,7.76681897 C144.383984,6.9547069 143.980034,5.99448276 143.980034,4.88686207 C143.980034,3.7799569 144.383984,2.81186207 145.191885,1.98114655 C145.999075,1.15114655 146.953478,0.736146552 148.053674,0.736146552 C149.188717,0.736146552 150.160189,1.15114655 150.96809,1.98114655 C151.775991,2.81186207 152.180652,3.7799569 152.180652,4.88686207 C152.180652,5.99448276 151.775991,6.9547069 150.96809,7.76681897 C150.160189,8.57964655 149.188717,8.98606034 148.053674,8.98606034 Z" id="Fill-13"></path>
                <path d="M161.63693,19.1589983 L173.771085,19.1589983 C173.421896,17.5648259 172.700759,16.3777828 171.606253,15.5964379 C170.511747,14.8158086 169.26647,14.4244207 167.870424,14.4244207 C166.221197,14.4244207 164.856442,14.8387052 163.778293,15.6665586 C162.700144,16.4944121 161.985408,17.6585586 161.63693,19.1589983 M179.084312,28.1809552 C178.879492,28.4943517 178.720188,28.7218862 178.720188,28.7218862 C176.371871,32.0654983 172.914113,33.7376621 168.346914,33.7376621 C164.412666,33.7376621 161.256448,32.5649293 158.877551,30.2216103 C156.497942,27.8782914 155.308849,24.9246362 155.308849,21.3620759 C155.308849,17.8309983 156.481585,14.8852138 158.829902,12.5254379 C161.177507,10.1670931 164.190066,8.98648966 167.870424,8.98648966 C171.359473,8.98648966 174.239042,10.1742483 176.506995,12.54905 C178.774948,14.9245672 179.909281,17.862481 179.909281,21.3620759 C179.909281,22.1434207 179.829629,22.9719897 179.671747,23.8463517 L161.732228,23.8463517 C162.557197,26.7842655 164.793147,28.2525069 168.441501,28.2525069 C170.521703,28.2525069 172.153861,27.6400241 173.337976,26.4121966 C175.052632,26.9373862 179.084312,28.1809552 179.084312,28.1809552" id="Fill-15"></path>
            </g>
        </g>
    </g>
</svg>